<svg width="10px" height="10px" xmlns="http://www.w3.org/2000/svg">
    <defs>
        <symbol id="icon-responsive" viewBox="0 0 24 24">
            <path d="M15 4c-0.553 0-1 0.448-1 1s0.447 1 1 1h1.586l-3.293 3.293c-0.391 0.391-0.391 1.023 0 1.414 0.195 0.195 0.451 0.293 0.707 0.293s0.512-0.098 0.707-0.293l3.293-3.293v1.586c0 0.552 0.447 1 1 1s1-0.448 1-1v-5h-5z"></path>
            <path d="M9.293 13.293l-3.293 3.293v-1.586c0-0.552-0.447-1-1-1s-1 0.448-1 1v4.999h0.996c0.008 0 4.004 0.001 4.004 0.001 0.552 0 1-0.448 1-1s-0.447-1-1-1h-1.586l3.293-3.292c0.391-0.391 0.391-1.023 0-1.414s-1.023-0.392-1.414-0.001z"></path>
            <path d="M7 12c0.552 0 1-0.448 1-1v-3h3c0.553 0 1-0.448 1-1s-0.447-1-1-1h-4.999l-0.001 5c0 0.552 0.447 1 1 1z"></path>
            <path d="M17 12c-0.553 0-1 0.448-1 1v3h-3c-0.553 0-1 0.448-1 1s0.447 1 1 1h5v-5c0-0.552-0.447-1-1-1z"></path>
        </symbol>
        <symbol id="icon-intuitive" viewBox="0 0 24 24">
            <path d="M19 18c0.55 0 1 0.45 1 1s-0.45 1-1 1h-7c-0.55 0-1-0.45-1-1s0.45-1 1-1h7M19 16h-7c-1.654 0-3 1.346-3 3s1.346 3 3 3h7c1.654 0 3-1.346 3-3s-1.346-3-3-3z"></path>
            <path d="M19 11c0.55 0 1 0.45 1 1s-0.45 1-1 1h-7c-0.55 0-1-0.45-1-1s0.45-1 1-1h7M19 9h-7c-1.654 0-3 1.346-3 3s1.346 3 3 3h7c1.654 0 3-1.346 3-3s-1.346-3-3-3z"></path>
            <path d="M19 4c0.55 0 1 0.45 1 1s-0.45 1-1 1h-7c-0.55 0-1-0.45-1-1s0.45-1 1-1h7M19 2h-7c-1.654 0-3 1.346-3 3s1.346 3 3 3h7c1.654 0 3-1.346 3-3s-1.346-3-3-3z"></path>
            <path d="M6 16h-2c-1.104 0-2 0.896-2 2v2c0 1.104 0.896 2 2 2h2c1.104 0 2-0.896 2-2v-2c0-1.104-0.896-2-2-2zM6 20h-2v-2h2v2z"></path>
            <path d="M6 9h-2c-1.104 0-2 0.896-2 2v2c0 1.104 0.896 2 2 2h2c1.104 0 2-0.896 2-2v-2c0-1.104-0.896-2-2-2zM6 13h-2v-2h2v2z"></path>
            <path d="M6 2h-2c-1.104 0-2 0.896-2 2v2c0 1.104 0.896 2 2 2h2c1.104 0 2-0.896 2-2v-2c0-1.104-0.896-2-2-2zM6 6h-2v-2h2v2z"></path>
        </symbol>
        <symbol id="icon-quick" viewBox="0 0 24 24">
            <path d="M16 13c0-0.55-0.45-1-1-1h-3c-0.55 0-1 0.45-1 1s0.45 1 1 1h3c0.55 0 1-0.45 1-1z"></path>
            <path d="M12 6c3.859 0 7 3.141 7 7s-3.141 7-7 7-7-3.141-7-7 3.141-7 7-7M12 4c-4.971 0-9 4.029-9 9s4.029 9 9 9 9-4.029 9-9-4.029-9-9-9z"></path>
            <path d="M13 10c0-0.55-0.45-1-1-1s-1 0.45-1 1v3c0 0.55 0.45 1 1 1s1-0.45 1-1v-3z"></path>
            <path d="M12 8c2.757 0 5 2.243 5 5s-2.243 5-5 5-5-2.243-5-5 2.243-5 5-5M12 7c-3.312 0-6 2.686-6 6 0 3.312 2.688 6 6 6s6-2.688 6-6c0-3.314-2.688-6-6-6z"></path>
        </symbol>
        <symbol id="icon-responsive" viewBox="0 0 24 24">
            <path d="M17 4h-9c-0.55 0-1 0.45-1 1v12c0 0.55 0.45 1 1 1h3.5c0 0.553 0.448 1 1 1s1-0.447 1-1h3.5c0.55 0 1-0.45 1-1v-12c0-0.55-0.45-1-1-1zM17 17h-9v-12h9v12z"></path>
            <path d="M18 1h-11c-1.654 0-3 1.346-3 3v15c0 1.654 1.346 3 3 3h11c1.654 0 3-1.346 3-3v-15c0-1.654-1.346-3-3-3zM19 19c0 0.551-0.449 1-1 1h-11c-0.551 0-1-0.449-1-1v-15c0-0.551 0.449-1 1-1h11c0.551 0 1 0.449 1 1v15z"></path>
        </symbol>
        <symbol id="icon-zoom" viewBox="0 0 24 24">
            <path d="M13 4c-3.859 0-7 3.141-7 7 0 0.763 0.127 1.495 0.354 2.183l-1.26 1.262-1.008 1.045c-0.562 0.557-0.891 1.345-0.891 2.185 0 1.727 1.404 3.131 3.13 3.131 0.757 0 1.504-0.278 2.104-0.784l0.064-0.055 0.061-0.061 2.262-2.259c0.688 0.226 1.421 0.353 2.184 0.353 3.859 0 7-3.141 7-7s-3.141-7-7-7zM13 16c-2.757 0-5-2.243-5-5s2.243-5 5-5 5 2.243 5 5-2.243 5-5 5z"></path>
            <path d="M13 7c-2.205 0-4 1.794-4 4s1.795 4 4 4 4-1.794 4-4-1.795-4-4-4zM13 14c-1.656 0-3-1.344-3-3s1.344-3 3-3 3 1.344 3 3-1.344 3-3 3z"></path>
        </symbol>
    </defs>
</svg>